/* XPM */
static const char* const move_icon_xpm[] = {
"32 32 172 2",
"  	c None",
". 	c #1850A0",
"+ 	c #69B3E8",
"@ 	c #68B3E8",
"# 	c #64AFE5",
"$ 	c #4FA1E1",
"% 	c #4DA0E1",
"& 	c #62ADE5",
"* 	c #64AEE5",
"= 	c #479BDE",
"- 	c #459BDE",
"; 	c #4B9EDF",
"> 	c #61ABE5",
", 	c #63AEE5",
"' 	c #4C9FE0",
") 	c #459ADD",
"! 	c #4499DD",
"~ 	c #4398DC",
"{ 	c #5DAAE4",
"] 	c #306CB2",
"^ 	c #2966B0",
"/ 	c #2C6DB8",
"( 	c #59A4E1",
"_ 	c #4197DC",
": 	c #55A1DF",
"< 	c #2A6CB7",
"[ 	c #2664B0",
"} 	c #2E6BB2",
"| 	c #2664AF",
"1 	c #56A2E0",
"2 	c #4095DB",
"3 	c #4094DB",
"4 	c #559FDE",
"5 	c #2663AF",
"6 	c #55A0DF",
"7 	c #3F93DB",
"8 	c #3D92DB",
"9 	c #529DDE",
"0 	c #2764B0",
"a 	c #549EDE",
"b 	c #3C91DA",
"c 	c #3B90D9",
"d 	c #509BDD",
"e 	c #519CDD",
"f 	c #398ED9",
"g 	c #388DD8",
"h 	c #4D9ADB",
"i 	c #4F9ADC",
"j 	c #368DD7",
"k 	c #358CD7",
"l 	c #4B98DB",
"m 	c #2663B0",
"n 	c #2C69B2",
"o 	c #2562AE",
"p 	c #4C99DB",
"q 	c #348BD7",
"r 	c #3288D6",
"s 	c #4894DA",
"t 	c #2361AE",
"u 	c #4B98DD",
"v 	c #5DA9E4",
"w 	c #4599DD",
"x 	c #296BB7",
"y 	c #2562AF",
"z 	c #2568B5",
"A 	c #4995DA",
"B 	c #3187D6",
"C 	c #3186D5",
"D 	c #4592DA",
"E 	c #2366B4",
"F 	c #225FAD",
"G 	c #2162B3",
"H 	c #2D7FD2",
"I 	c #4995DB",
"J 	c #5BA8E3",
"K 	c #4498DD",
"L 	c #4893DA",
"M 	c #2E85D5",
"N 	c #2D84D4",
"O 	c #4490D9",
"P 	c #438FD8",
"Q 	c #438ED8",
"R 	c #418DD7",
"S 	c #408CD6",
"T 	c #408BD6",
"U 	c #3F89D5",
"V 	c #3F88D4",
"W 	c #3D87D2",
"X 	c #2577CE",
"Y 	c #2C7CD0",
"Z 	c #4892DA",
"` 	c #4397DC",
" .	c #2C83D4",
"..	c #2A81D3",
"+.	c #2A80D3",
"@.	c #297ED2",
"#.	c #277DD1",
"$.	c #277CD1",
"%.	c #267AD0",
"&.	c #2679CF",
"*.	c #2578CE",
"=.	c #2576CD",
"-.	c #2373CC",
";.	c #2372CB",
">.	c #2978CE",
",.	c #4C97DB",
"'.	c #5EAAE4",
").	c #4093DB",
"!.	c #2272CA",
"~.	c #2271C9",
"{.	c #2777CC",
"].	c #4B94DA",
"^.	c #56A3E1",
"/.	c #4591D9",
"(.	c #3D86D2",
"_.	c #3D85D2",
":.	c #3C83D1",
"<.	c #3C81D1",
"[.	c #3B81D0",
"}.	c #3B80CF",
"|.	c #2170C9",
"1.	c #2774CB",
"2.	c #448DD7",
"3.	c #52A1DF",
"4.	c #2567B5",
"5.	c #225FAE",
"6.	c #2263B3",
"7.	c #2162B2",
"8.	c #225EAD",
"9.	c #215DAC",
"0.	c #1F5EB0",
"a.	c #2673CA",
"b.	c #448CD6",
"c.	c #4F9EDF",
"d.	c #215EAD",
"e.	c #448CD5",
"f.	c #2561AE",
"g.	c #2A67B1",
"h.	c #235FAE",
"i.	c #397ECE",
"j.	c #235FAD",
"k.	c #3980CE",
"l.	c #216DC8",
"m.	c #1F6CC7",
"n.	c #387CCC",
"o.	c #387DCD",
"p.	c #1F6BC6",
"q.	c #1F69C5",
"r.	c #3679CA",
"s.	c #215BAC",
"t.	c #1F5DB0",
"u.	c #387ACB",
"v.	c #1E68C4",
"w.	c #1E67C4",
"x.	c #3677C9",
"y.	c #1E5BAF",
"z.	c #2A66B0",
"A.	c #2570C8",
"B.	c #1E66C3",
"C.	c #1C66C3",
"D.	c #1B64C2",
"E.	c #2269C4",
"F.	c #4086D2",
"G.	c #4389D4",
"H.	c #236DC6",
"I.	c #1B62C1",
"J.	c #2268C4",
"K.	c #3F86D2",
"L.	c #4087D2",
"M.	c #2168C4",
"N.	c #3F85D2",
"O.	c #458BD4",
"                                                                ",
"                              . .                               ",
"                            . + @ .                             ",
"                          . # $ % & .                           ",
"                        . * % = - ; > .                         ",
"                      . , ' - ) ! ~ = { .                       ",
"                    . ] ^ / ( ~ _ : < [ } .                     ",
"                          | 1 2 3 4 5                           ",
"                          ^ 6 7 8 9 0                           ",
"                          ^ a b c d 0                           ",
"            .             0 e f g h [             .             ",
"          . ]             0 i j k l m             n .           ",
"        . { 0             o p q r s t             t u .         ",
"      . v w x y 0 0 0 [ o z A B C D E t y y y y F G H I .       ",
"    . J K b e d i h p l A s L M N O P Q R S T U V W X Y Z .     ",
"  . > ` c f g j k q r B C M N  ...+.@.#.$.%.&.*.X =.-.;.>.,..   ",
"  . '.).g j k q r B C M N  ...+.@.#.$.%.&.*.X =.-.;.!.~.{.]..   ",
"    . ^.b q A s L D /.O P Q R #.$.U V W (._.:.<.[.}.|.1.2..     ",
"      . 3.g 4.t y y y y 5.6.T %.&.W 7.8.t t t t 9.0.a.b..       ",
"        . c.o             F V *.X _.d.            8.e..         ",
"          . n             f.(.=.-.<.t             g..           ",
"            .             f.:.;.!.}.h.            .             ",
"                          t [.~.|.i.j.                          ",
"                          t k.l.m.n.j.                          ",
"                          9.o.p.q.r.s.                          ",
"                    . g.8.t.u.v.w.x.y.9.z..                     ",
"                      . e.A.w.B.C.D.E.F..                       ",
"                        . G.H.D.I.J.K..                         ",
"                          . L.J.M.N..                           ",
"                            . O.O..                             ",
"                              . .                               ",
"                                                                "};
